# xmcd CD database file
#
# Track frame offsets:
#	150
#	12244
#	26236
#	38547
#	49875
#	58505
#	69137
#	82593
#	96334
#	112715
#	122281
#	132417
#
# Disc length: 1865 seconds
#
# Revision: 0
# Processed by: cddbd v1.5.2PL0 Copyright (c) Steve Scherf et al.
# Submitted via: CDex 1.51
#
DISCID=8807470c
DTITLE=Die lustigen Fünf - Jung, frech und boarisch 
DYEAR=2006
DGENRE=Volkstümlich
TTITLE0=Die lustigen Fünf kommen 
TTITLE1=Wir bleiben Oberkrainerfreunde 
TTITLE2=Heute Freunde feiern wir 
TTITLE3=Katja und ihr Saxophon 
TTITLE4=Jung, frech und boarisch 
TTITLE5=Trompetenecho 
TTITLE6=Guten Morgen (Dobro Jutro) 
TTITLE7=Ein Gruß aus Hohenwarth 
TTITLE8=Erinnerung 
TTITLE9=Auf der Autobahn 
TTITLE10=Es ist so schön ein Musikant zu sein 
TTITLE11=Rosserer-Polka 
EXTD=YEAR: 2006
EXTT0=
EXTT1=
EXTT2=
EXTT3=
EXTT4=
EXTT5=
EXTT6=
EXTT7=
EXTT8=
EXTT9=
EXTT10=
EXTT11=
PLAYORDER=
